<svg width="113" height="83" viewBox="0 0 113 83" fill="none" xmlns="http://www.w3.org/2000/svg">
<rect width="113" height="83" rx="10" fill="#FFFCF2"/>
<path d="M5.71387 61V22.3281H16.3486C19.1318 22.3281 21.2266 23.1045 22.6328 24.6572C24.0391 26.1953 24.7422 28.4512 24.7422 31.4248V49.5303C24.7422 53.1924 24.0977 56.0195 22.8086 58.0117C21.5342 60.0039 19.293 61 16.085 61H5.71387ZM13.4922 54.1665H14.8325C16.2534 54.1665 16.9639 53.478 16.9639 52.1011V32.1499C16.9639 30.8608 16.7881 30.0332 16.4365 29.667C16.0996 29.2861 15.4038 29.0957 14.3491 29.0957H13.4922V54.1665ZM27.9062 61V22.3281H43.375V29.7988H35.7725V37.3354H43.0674V44.6084H35.7725V53.4634H43.8804V61H27.9062ZM45.4404 61V53.9688L54.2954 29.4473H46.2974V22.3281H62.4473V29.0957L53.4385 53.8809H62.0737V61H45.4404ZM63.8535 61L67.5889 22.3281H80.7065L84.376 61H77.0591L76.5098 54.7598H71.8516L71.3682 61H63.8535ZM72.4009 48.5854H75.9165L74.2246 28.9199H73.873L72.4009 48.5854ZM95.6919 61.3516C92.4692 61.3516 90.0962 60.4507 88.5728 58.6489C87.0493 56.8325 86.2876 54.1665 86.2876 50.6509V22.3281H93.8022V50.3433C93.8022 50.9878 93.8389 51.6104 93.9121 52.2109C93.9854 52.7969 94.1538 53.2803 94.4175 53.6611C94.6812 54.042 95.106 54.2324 95.6919 54.2324C96.2925 54.2324 96.7246 54.0493 96.9883 53.6831C97.252 53.3022 97.4131 52.8115 97.4717 52.2109C97.5449 51.6104 97.5815 50.9878 97.5815 50.3433V22.3281H105.096V50.6509C105.096 54.1665 104.334 56.8325 102.811 58.6489C101.288 60.4507 98.9146 61.3516 95.6919 61.3516Z" fill="#EB5E28"/>
<path d="M7.71387 63V24.3281H18.3486C21.1318 24.3281 23.2266 25.1045 24.6328 26.6572C26.0391 28.1953 26.7422 30.4512 26.7422 33.4248V51.5303C26.7422 55.1924 26.0977 58.0195 24.8086 60.0117C23.5342 62.0039 21.293 63 18.085 63H7.71387ZM15.4922 56.1665H16.8325C18.2534 56.1665 18.9639 55.478 18.9639 54.1011V34.1499C18.9639 32.8608 18.7881 32.0332 18.4365 31.667C18.0996 31.2861 17.4038 31.0957 16.3491 31.0957H15.4922V56.1665ZM29.9062 63V24.3281H45.375V31.7988H37.7725V39.3354H45.0674V46.6084H37.7725V55.4634H45.8804V63H29.9062ZM47.4404 63V55.9688L56.2954 31.4473H48.2974V24.3281H64.4473V31.0957L55.4385 55.8809H64.0737V63H47.4404ZM65.8535 63L69.5889 24.3281H82.7065L86.376 63H79.0591L78.5098 56.7598H73.8516L73.3682 63H65.8535ZM74.4009 50.5854H77.9165L76.2246 30.9199H75.873L74.4009 50.5854ZM97.6919 63.3516C94.4692 63.3516 92.0962 62.4507 90.5728 60.6489C89.0493 58.8325 88.2876 56.1665 88.2876 52.6509V24.3281H95.8022V52.3433C95.8022 52.9878 95.8389 53.6104 95.9121 54.2109C95.9854 54.7969 96.1538 55.2803 96.4175 55.6611C96.6812 56.042 97.106 56.2324 97.6919 56.2324C98.2925 56.2324 98.7246 56.0493 98.9883 55.6831C99.252 55.3022 99.4131 54.8115 99.4717 54.2109C99.5449 53.6104 99.5815 52.9878 99.5815 52.3433V24.3281H107.096V52.6509C107.096 56.1665 106.334 58.8325 104.811 60.6489C103.288 62.4507 100.915 63.3516 97.6919 63.3516Z" fill="#252422"/>
</svg>
