<svg width="158" height="89" viewBox="0 0 158 89" fill="none" xmlns="http://www.w3.org/2000/svg">
<rect width="158" height="89" rx="10" fill="#CCC5B9"/>
<path d="M27.7139 64V25.3281H38.3486C41.1318 25.3281 43.2266 26.1045 44.6328 27.6572C46.0391 29.1953 46.7422 31.4512 46.7422 34.4248V52.5303C46.7422 56.1924 46.0977 59.0195 44.8086 61.0117C43.5342 63.0039 41.293 64 38.085 64H27.7139ZM35.4922 57.1665H36.8325C38.2534 57.1665 38.9639 56.478 38.9639 55.1011V35.1499C38.9639 33.8608 38.7881 33.0332 38.4365 32.667C38.0996 32.2861 37.4038 32.0957 36.3491 32.0957H35.4922V57.1665ZM49.9062 64V25.3281H65.375V32.7988H57.7725V40.3354H65.0674V47.6084H57.7725V56.4634H65.8804V64H49.9062ZM67.4404 64V56.9688L76.2954 32.4473H68.2974V25.3281H84.4473V32.0957L75.4385 56.8809H84.0737V64H67.4404ZM85.8535 64L89.5889 25.3281H102.707L106.376 64H99.0591L98.5098 57.7598H93.8516L93.3682 64H85.8535ZM94.4009 51.5854H97.9165L96.2246 31.9199H95.873L94.4009 51.5854ZM117.692 64.3516C114.469 64.3516 112.096 63.4507 110.573 61.6489C109.049 59.8325 108.288 57.1665 108.288 53.6509V25.3281H115.802V53.3433C115.802 53.9878 115.839 54.6104 115.912 55.2109C115.985 55.7969 116.154 56.2803 116.417 56.6611C116.681 57.042 117.106 57.2324 117.692 57.2324C118.292 57.2324 118.725 57.0493 118.988 56.6831C119.252 56.3022 119.413 55.8115 119.472 55.2109C119.545 54.6104 119.582 53.9878 119.582 53.3433V25.3281H127.096V53.6509C127.096 57.1665 126.334 59.8325 124.811 61.6489C123.288 63.4507 120.915 64.3516 117.692 64.3516Z" fill="#EB5E28"/>
<path d="M29.7139 66V27.3281H40.3486C43.1318 27.3281 45.2266 28.1045 46.6328 29.6572C48.0391 31.1953 48.7422 33.4512 48.7422 36.4248V54.5303C48.7422 58.1924 48.0977 61.0195 46.8086 63.0117C45.5342 65.0039 43.293 66 40.085 66H29.7139ZM37.4922 59.1665H38.8325C40.2534 59.1665 40.9639 58.478 40.9639 57.1011V37.1499C40.9639 35.8608 40.7881 35.0332 40.4365 34.667C40.0996 34.2861 39.4038 34.0957 38.3491 34.0957H37.4922V59.1665ZM51.9062 66V27.3281H67.375V34.7988H59.7725V42.3354H67.0674V49.6084H59.7725V58.4634H67.8804V66H51.9062ZM69.4404 66V58.9688L78.2954 34.4473H70.2974V27.3281H86.4473V34.0957L77.4385 58.8809H86.0737V66H69.4404ZM87.8535 66L91.5889 27.3281H104.707L108.376 66H101.059L100.51 59.7598H95.8516L95.3682 66H87.8535ZM96.4009 53.5854H99.9165L98.2246 33.9199H97.873L96.4009 53.5854ZM119.692 66.3516C116.469 66.3516 114.096 65.4507 112.573 63.6489C111.049 61.8325 110.288 59.1665 110.288 55.6509V27.3281H117.802V55.3433C117.802 55.9878 117.839 56.6104 117.912 57.2109C117.985 57.7969 118.154 58.2803 118.417 58.6611C118.681 59.042 119.106 59.2324 119.692 59.2324C120.292 59.2324 120.725 59.0493 120.988 58.6831C121.252 58.3022 121.413 57.8115 121.472 57.2109C121.545 56.6104 121.582 55.9878 121.582 55.3433V27.3281H129.096V55.6509C129.096 59.1665 128.334 61.8325 126.811 63.6489C125.288 65.4507 122.915 66.3516 119.692 66.3516Z" fill="#252422"/>
</svg>
