<svg width="233" height="213" viewBox="0 0 233 213" fill="none" xmlns="http://www.w3.org/2000/svg">
<g filter="url(#filter0_d_148_14)">
<rect x="15" y="15" width="203" height="183" rx="10" fill="#252422"/>
</g>
<rect x="60" y="65" width="113" height="83" rx="10" fill="#FFFCF2"/>
<path d="M65.7139 126V87.3281H76.3486C79.1318 87.3281 81.2266 88.1045 82.6328 89.6572C84.0391 91.1953 84.7422 93.4512 84.7422 96.4248V114.53C84.7422 118.192 84.0977 121.02 82.8086 123.012C81.5342 125.004 79.293 126 76.085 126H65.7139ZM73.4922 119.167H74.8325C76.2534 119.167 76.9639 118.478 76.9639 117.101V97.1499C76.9639 95.8608 76.7881 95.0332 76.4365 94.667C76.0996 94.2861 75.4038 94.0957 74.3491 94.0957H73.4922V119.167ZM87.9062 126V87.3281H103.375V94.7988H95.7725V102.335H103.067V109.608H95.7725V118.463H103.88V126H87.9062ZM105.44 126V118.969L114.295 94.4473H106.297V87.3281H122.447V94.0957L113.438 118.881H122.074V126H105.44ZM123.854 126L127.589 87.3281H140.707L144.376 126H137.059L136.51 119.76H131.852L131.368 126H123.854ZM132.401 113.585H135.917L134.225 93.9199H133.873L132.401 113.585ZM155.692 126.352C152.469 126.352 150.096 125.451 148.573 123.649C147.049 121.833 146.288 119.167 146.288 115.651V87.3281H153.802V115.343C153.802 115.988 153.839 116.61 153.912 117.211C153.985 117.797 154.154 118.28 154.417 118.661C154.681 119.042 155.106 119.232 155.692 119.232C156.292 119.232 156.725 119.049 156.988 118.683C157.252 118.302 157.413 117.812 157.472 117.211C157.545 116.61 157.582 115.988 157.582 115.343V87.3281H165.096V115.651C165.096 119.167 164.334 121.833 162.811 123.649C161.288 125.451 158.915 126.352 155.692 126.352Z" fill="#EB5E28"/>
<path d="M67.7139 128V89.3281H78.3486C81.1318 89.3281 83.2266 90.1045 84.6328 91.6572C86.0391 93.1953 86.7422 95.4512 86.7422 98.4248V116.53C86.7422 120.192 86.0977 123.02 84.8086 125.012C83.5342 127.004 81.293 128 78.085 128H67.7139ZM75.4922 121.167H76.8325C78.2534 121.167 78.9639 120.478 78.9639 119.101V99.1499C78.9639 97.8608 78.7881 97.0332 78.4365 96.667C78.0996 96.2861 77.4038 96.0957 76.3491 96.0957H75.4922V121.167ZM89.9062 128V89.3281H105.375V96.7988H97.7725V104.335H105.067V111.608H97.7725V120.463H105.88V128H89.9062ZM107.44 128V120.969L116.295 96.4473H108.297V89.3281H124.447V96.0957L115.438 120.881H124.074V128H107.44ZM125.854 128L129.589 89.3281H142.707L146.376 128H139.059L138.51 121.76H133.852L133.368 128H125.854ZM134.401 115.585H137.917L136.225 95.9199H135.873L134.401 115.585ZM157.692 128.352C154.469 128.352 152.096 127.451 150.573 125.649C149.049 123.833 148.288 121.167 148.288 117.651V89.3281H155.802V117.343C155.802 117.988 155.839 118.61 155.912 119.211C155.985 119.797 156.154 120.28 156.417 120.661C156.681 121.042 157.106 121.232 157.692 121.232C158.292 121.232 158.725 121.049 158.988 120.683C159.252 120.302 159.413 119.812 159.472 119.211C159.545 118.61 159.582 117.988 159.582 117.343V89.3281H167.096V117.651C167.096 121.167 166.334 123.833 164.811 125.649C163.288 127.451 160.915 128.352 157.692 128.352Z" fill="#252422"/>
<defs>
<filter id="filter0_d_148_14" x="0" y="0" width="233" height="213" filterUnits="userSpaceOnUse" color-interpolation-filters="sRGB">
<feFlood flood-opacity="0" result="BackgroundImageFix"/>
<feColorMatrix in="SourceAlpha" type="matrix" values="0 0 0 0 0 0 0 0 0 0 0 0 0 0 0 0 0 0 127 0" result="hardAlpha"/>
<feOffset/>
<feGaussianBlur stdDeviation="7.5"/>
<feComposite in2="hardAlpha" operator="out"/>
<feColorMatrix type="matrix" values="0 0 0 0 1 0 0 0 0 0.988235 0 0 0 0 0.94902 0 0 0 1 0"/>
<feBlend mode="normal" in2="BackgroundImageFix" result="effect1_dropShadow_148_14"/>
<feBlend mode="normal" in="SourceGraphic" in2="effect1_dropShadow_148_14" result="shape"/>
</filter>
</defs>
</svg>
